# xmcd
#
# Track frame offsets:
#	150
#	11423
#	22725
#	34367
#	46916
#	61006
#	73573
#	90591
#	105650
#	120223
#	131514
#	143126
#	154753
#	164161
#	179042
#	191295
#	202806
#	216783
#	229712
#	244622
#	260085
#	274013
#	286885
#	302160
#	316018
#	326683
#	337639
#
# Disc length: 4692 seconds
#
# Revision: 5
# Processed by: cddbd v1.5.2PL0 Copyright (c) Steve Scherf et al.
# Submitted via: EZCDAudioConverter 2.1.7.1
#
DISCID=6d12521b
DTITLE=V/A - Children Of Nuggets 1/4
DYEAR=2005
DGENRE=
TTITLE0=The Dukes Of Stratosphear - Vanishing Girl
TTITLE1=Lyres - Help You Ann
TTITLE2=Bangles - The Real World
TTITLE3=The Barracudas - We're Living In Violent Times
TTITLE4=Nashville Ramblers - The Trains
TTITLE5=Watermelon Men - Seven Years
TTITLE6=The Smithereens - Strangers When We Meet
TTITLE7=Soft Boys - Wading Through A Ventilator
TTITLE8=Flamin' Groovies - I Can't Hide
TTITLE9=The Fleshtones - The Girl From Baltimore
TTITLE10=That Petrol Emotion - It's A Good Thing
TTITLE11=The Stems - She's Fine
TTITLE12=The Point - All My Life
TTITLE13=The Creeps - Down At The Nightclub
TTITLE14=The Spongetones - (My Girl) Maryanne
TTITLE15=Salvation Army - She Turns To Flowers
TTITLE16=Rain Parade - You Are My Friend
TTITLE17=The Inmates - Mr. Unreliable
TTITLE18=Chris Stamey and The dB's - (I Thought) You Wanted To Know
TTITLE19=The Last - She Don't Know Why I'm Here [Single]
TTITLE20=Biff, Bang, Pow! - There Must Be A Better Life
TTITLE21=Lime Spiders - Slave Girl
TTITLE22=The Posies - I May Hate You Sometimes
TTITLE23=The Times - I Helped Patrick McGoohan Escape
TTITLE24=The Pandoras - It's About Time
TTITLE25=Swingin' Neckbreakers - I Live For Buzz
TTITLE26=Hoodoo Gurus - I Want You Back
EXTD=
EXTT0=
EXTT1=
EXTT2=
EXTT3=
EXTT4=
EXTT5=
EXTT6=
EXTT7=
EXTT8=
EXTT9=
EXTT10=
EXTT11=
EXTT12=
EXTT13=
EXTT14=
EXTT15=
EXTT16=
EXTT17=
EXTT18=
EXTT19=
EXTT20=
EXTT21=
EXTT22=
EXTT23=
EXTT24=
EXTT25=
EXTT26=
PLAYORDER=
